<svg xmlns="http://www.w3.org/2000/svg" enable-background="new 0 0 16 16" viewBox="0 0 16 16"
    id="bell">
    <g display="none">
        <path fill="none" stroke="#000" stroke-linecap="round" stroke-linejoin="round"
            stroke-miterlimit="10"
            d="M14.5,13.5l-0.8-0.8c-0.8-0.8-1.2-1.8-1.2-2.8V8c0-2.5-2-4.5-4.5-4.5h0c-2.5,0-4.5,2-4.5,4.5v1.8
		c0,1.1-0.4,2.1-1.2,2.8l-0.8,0.8H12"></path>
        <path fill="none" stroke="#000" stroke-linejoin="round" stroke-miterlimit="10"
            d="M5.6,13.5c0.2,1.1,1.2,2,2.4,2s2.2-0.9,2.4-2"></path>
        <path fill="none" stroke="#000" stroke-linecap="round" stroke-linejoin="round"
            stroke-miterlimit="10"
            d="M2.5 3.5c0-.6.4-1 1-1M.5 3.5c0-1.7 1.3-3 3-3M13.5 3.5c0-.6-.4-1-1-1M15.5 3.5c0-1.7-1.3-3-3-3"></path>
    </g>
    <g>
        <path
            d="M14 12.3c-.7-.7-1-1.5-1-2.5V8c0-2.8-2.2-5-5-5S3 5.2 3 8v1.8c0 .9-.4 1.8-1 2.5l-.8.8C1 13.3 1 13.5 1 13.7 1.1 13.9 1.3 14 1.5 14h3.7c.4 1.2 1.5 2 2.8 2s2.4-.8 2.8-2H12c.3 0 .5-.2.5-.5S12.3 13 12 13H2.7C3.5 12.2 4 11 4 9.8V8c0-2.2 1.8-4 4-4s4 1.8 4 4v1.8c0 1.2.5 2.3 1.3 3.2l.8.8c.1.1.2.1.4.1s.3 0 .4-.1c.2-.2.2-.5 0-.7L14 12.3zM8 15c-.7 0-1.4-.4-1.7-1h3.5C9.4 14.6 8.7 15 8 15zM3.5 2C2.7 2 2 2.7 2 3.5 2 3.8 2.2 4 2.5 4S3 3.8 3 3.5C3 3.2 3.2 3 3.5 3 3.8 3 4 2.8 4 2.5S3.8 2 3.5 2z"></path>
        <path
            d="M3.5 1C3.8 1 4 .8 4 .5S3.8 0 3.5 0C1.6 0 0 1.6 0 3.5 0 3.8.2 4 .5 4S1 3.8 1 3.5C1 2.1 2.1 1 3.5 1zM13 3.5C13 3.8 13.2 4 13.5 4S14 3.8 14 3.5C14 2.7 13.3 2 12.5 2 12.2 2 12 2.2 12 2.5S12.2 3 12.5 3C12.8 3 13 3.2 13 3.5z"></path>
        <path
            d="M12.5,0C12.2,0,12,0.2,12,0.5S12.2,1,12.5,1C13.9,1,15,2.1,15,3.5C15,3.8,15.2,4,15.5,4S16,3.8,16,3.5
			C16,1.6,14.4,0,12.5,0z"></path>
    </g>
</svg>